<?xml version="1.0" encoding="UTF-8"?>
<svg id="Capa_2" data-name="Capa 2" xmlns="http://www.w3.org/2000/svg" viewBox="0 0 252.17 21.01">
  <defs>
    <style>
      .cls-1 {
        fill: #624f41;
        stroke-width: 0px;
      }

      .cls-2 {
        fill: none;
        stroke: #624f41;
        stroke-linecap: round;
        stroke-miterlimit: 10;
        stroke-width: 1.54px;
      }
    </style>
  </defs>
  <g id="OBJECTS">
    <g>
      <g>
        <g>
          <line class="cls-2" x1="7.3" y1="10.62" x2="119.03" y2="10.62"/>
          <path class="cls-1" d="m9.64,10.62c0,1.29-1.05,2.34-2.34,2.34s-2.34-1.05-2.34-2.34,1.05-2.34,2.34-2.34,2.34,1.05,2.34,2.34Z"/>
          <path class="cls-2" d="m13.83,10.62c0,3.61-2.92,6.53-6.53,6.53S.77,14.23.77,10.62s2.92-6.53,6.53-6.53,6.53,2.92,6.53,6.53Z"/>
          <path class="cls-1" d="m127.57,8.43c-.68-.8-1.96-1.59-2.96-.97-.95.58-1.41,1.66-1.34,2.67-.28.73-.22,1.58.32,2.23-.45.82-1.09,1.49-2.17,1.85-1.38.47-2.91.28-4.18-.39-.87-.6-1.63-1.44-2.13-2.46-.75-1.53-.89-3.26-.35-4.9.27-.82.76-1.73,1.37-2.36.86-.89,3.81-1.41,3.85.29.07,3.22,5.26,3.08,4.91,0-.46-4.05-4.66-5.56-8-3.42-1.74,1.12-3.06,2.85-3.71,4.8-13.58-9.41-32.82-5.42-46.76.73-8.4,3.71-16.12,9.41-24.97,12.04-5.37,1.6-12.33,2.25-16.74-1.94-2.12-2.02-3.34-4.83-2.48-7.72.91-3.08,3.12-3.67,5.71-4.89.76-.36.57-1.65-.24-1.82-3.21-.67-5.74,1.84-6.9,4.68-1.33,3.25-.46,6.77,1.72,9.43,5.76,7.02,16.37,4.93,23.61,1.87,10.86-4.59,20.41-11.34,31.93-14.5,5.72-1.57,11.62-2.34,17.55-1.98,6.39.39,11.64,2.24,17.33,4.91-.28,1.24-.29,2.55.04,3.81.86,3.28,3.93,6.1,7.42,6.05,1.04-.02,2.14-.41,3.01-1.04,1.17-.48,2.24-1.28,2.98-2.29.02,0,.05-.01.07-.02.04-.01.08-.02.12-.04.04-.02.08-.02.12-.04.58.13,1.1-.35,1.17-.96,0-.01,0-.03,0-.04.14-.21.26-.45.34-.71.32-1.02.01-2.09-.66-2.89Z"/>
          <path class="cls-1" d="m60.9,2.75c-.06-.07-.12-.13-.19-.19-.29-.43-.72-.76-1.29-.86-1.24-.21-2.47.61-2.78,1.84-.22.89.14,1.72.77,2.29-3.16,2.28-6.49,4.33-10,6.04-4.4,2.14-13.35,6.84-17.19,1.82-1.14-1.49-3.31.19-2.04,1.57,3.91,4.26,10.36,1.47,14.75-.39,5.33-2.25,10.2-5.25,14.69-8.87.22.16.46.3.72.4,1.27.47,2.74-.22,3.05-1.57.17-.75,0-1.49-.49-2.07Z"/>
        </g>
        <path class="cls-1" d="m124.91,16.47c-.66.31-.91.73-1.46,1.2-.86.73-1.86,1.16-2.96,1.33-2.28.35-4.01-.7-5.64-2.18-.12-.11-.33.03-.24.18,1.13,1.92,3.45,3,5.64,2.93,1.78-.05,4.79-1.09,5.12-3.11.05-.28-.2-.48-.46-.36Z"/>
      </g>
      <g>
        <g>
          <line class="cls-2" x1="244.87" y1="10.62" x2="133.14" y2="10.62"/>
          <path class="cls-1" d="m242.53,10.62c0,1.29,1.05,2.34,2.34,2.34s2.34-1.05,2.34-2.34-1.05-2.34-2.34-2.34-2.34,1.05-2.34,2.34Z"/>
          <path class="cls-2" d="m238.34,10.62c0,3.61,2.92,6.53,6.53,6.53s6.53-2.92,6.53-6.53-2.92-6.53-6.53-6.53-6.53,2.92-6.53,6.53Z"/>
          <path class="cls-1" d="m124.6,8.43c.68-.8,1.96-1.59,2.96-.97.95.58,1.41,1.66,1.34,2.67.28.73.22,1.58-.32,2.23.45.82,1.09,1.49,2.17,1.85,1.38.47,2.91.28,4.18-.39.87-.6,1.63-1.44,2.13-2.46.75-1.53.89-3.26.35-4.9-.27-.82-.76-1.73-1.37-2.36-.86-.89-3.81-1.41-3.85.29-.07,3.22-5.26,3.08-4.91,0,.46-4.05,4.66-5.56,8-3.42,1.74,1.12,3.06,2.85,3.71,4.8,13.58-9.41,32.82-5.42,46.76.73,8.4,3.71,16.12,9.41,24.97,12.04,5.37,1.6,12.33,2.25,16.74-1.94,2.12-2.02,3.34-4.83,2.48-7.72-.91-3.08-3.12-3.67-5.71-4.89-.76-.36-.57-1.65.24-1.82,3.21-.67,5.74,1.84,6.9,4.68,1.33,3.25.46,6.77-1.72,9.43-5.76,7.02-16.37,4.93-23.61,1.87-10.86-4.59-20.41-11.34-31.93-14.5-5.72-1.57-11.62-2.34-17.55-1.98-6.39.39-11.64,2.24-17.33,4.91.28,1.24.29,2.55-.04,3.81-.86,3.28-3.93,6.1-7.42,6.05-1.04-.02-2.14-.41-3.01-1.04-1.17-.48-2.24-1.28-2.98-2.29-.02,0-.05-.01-.07-.02-.04-.01-.08-.02-.12-.04-.04-.02-.08-.02-.12-.04-.58.13-1.1-.35-1.17-.96,0-.01,0-.03,0-.04-.14-.21-.26-.45-.34-.71-.32-1.02-.01-2.09.66-2.89Z"/>
          <path class="cls-1" d="m191.28,2.75c.06-.07.12-.13.19-.19.29-.43.72-.76,1.29-.86,1.24-.21,2.47.61,2.78,1.84.22.89-.14,1.72-.77,2.29,3.16,2.28,6.49,4.33,10,6.04,4.4,2.14,13.35,6.84,17.19,1.82,1.14-1.49,3.31.19,2.04,1.57-3.91,4.26-10.36,1.47-14.75-.39-5.33-2.25-10.2-5.25-14.69-8.87-.22.16-.46.3-.72.4-1.27.47-2.74-.22-3.05-1.57-.17-.75,0-1.49.49-2.07Z"/>
        </g>
        <path class="cls-1" d="m127.26,16.47c.66.31.91.73,1.46,1.2.86.73,1.86,1.16,2.96,1.33,2.28.35,4.01-.7,5.64-2.18.12-.11.33.03.24.18-1.13,1.92-3.45,3-5.64,2.93-1.78-.05-4.79-1.09-5.12-3.11-.05-.28.2-.48.47-.36Z"/>
      </g>
    </g>
  </g>
</svg>