<?xml version="1.0" encoding="UTF-8"?>
<svg id="Capa_2" data-name="Capa 2" xmlns="http://www.w3.org/2000/svg" viewBox="0 0 150.11 137.02">
  <defs>
    <style>
      .cls-1 {
        font-size: 6.31px;
      }

      .cls-1, .cls-2 {
        font-family: Montserrat-Medium, Montserrat;
        font-weight: 500;
      }

      .cls-1, .cls-2, .cls-3, .cls-4 {
        fill: #8eb5dd;
      }

      .cls-2 {
        font-size: 5px;
      }

      .cls-5 {
        fill: none;
        stroke-linejoin: round;
        stroke-width: .6px;
      }

      .cls-5, .cls-4 {
        stroke: #8eb5dd;
        stroke-linecap: round;
      }

      .cls-3 {
        stroke-width: 0px;
      }

      .cls-4 {
        stroke-miterlimit: 10;
        stroke-width: .82px;
      }
    </style>
  </defs>
  <g id="OBJECTS">
    <g>
      <path class="cls-5" d="m131.84,93.89c-10.07,25.1-34.63,42.82-63.33,42.82C30.84,136.72.3,106.18.3,68.51S30.84.3,68.51.3c26.47,0,49.42,15.08,60.73,37.12"/>
      <g>
        <text class="cls-2" transform="translate(36.03 31.49) rotate(-37.22)"><tspan x="0" y="0">E</tspan></text>
        <text class="cls-2" transform="translate(40.12 28.47) rotate(-31.31)"><tspan x="0" y="0">N</tspan></text>
        <text class="cls-2" transform="translate(45.17 25.56) rotate(-26.31)"><tspan x="0" y="0">I</tspan></text>
        <text class="cls-2" transform="translate(48.16 24.12) rotate(-21.7)"><tspan x="0" y="0">E</tspan></text>
        <text class="cls-2" transform="translate(52.93 22.31) rotate(-15.94)"><tspan x="0" y="0">R</tspan></text>
        <text class="cls-2" transform="translate(58.16 20.94) rotate(-11.27)"><tspan x="0" y="0"> </tspan></text>
        <text class="cls-2" transform="translate(61.21 20.36) rotate(-6.75)"><tspan x="0" y="0">&amp;</tspan></text>
        <text class="cls-2" transform="translate(66.41 19.85) rotate(-2.22)"><tspan x="0" y="0"> </tspan></text>
        <text class="cls-2" transform="translate(69.5 19.74) rotate(2.92)"><tspan x="0" y="0">M</tspan></text>
        <text class="cls-2" transform="translate(76.02 20.2) rotate(9.41)"><tspan x="0" y="0">A</tspan></text>
        <text class="cls-2" transform="translate(81.34 21.17) rotate(15.32)"><tspan x="0" y="0">R</tspan></text>
        <text class="cls-2" transform="translate(86.52 22.71) rotate(20.11)"><tspan x="0" y="0">I</tspan></text>
        <text class="cls-2" transform="translate(89.63 23.88) rotate(24.9)"><tspan x="0" y="0">A</tspan></text>
        <text class="cls-2" transform="translate(94.5 26.24) rotate(31.02)"><tspan x="0" y="0">N</tspan></text>
        <text class="cls-2" transform="translate(99.42 29.32) rotate(37.11)"><tspan x="0" y="0">A</tspan></text>
      </g>
      <g>
        <text class="cls-1" transform="translate(26.66 104.25) rotate(50.81)"><tspan x="0" y="0">E</tspan></text>
        <text class="cls-1" transform="translate(31.14 109.5) rotate(42.93)"><tspan x="0" y="0">N</tspan></text>
        <text class="cls-1" transform="translate(36.96 114.59) rotate(36.32)"><tspan x="0" y="0">I</tspan></text>
        <text class="cls-1" transform="translate(40.67 117.21) rotate(30.2)"><tspan x="0" y="0">E</tspan></text>
        <text class="cls-1" transform="translate(46.71 120.54) rotate(22.53)"><tspan x="0" y="0">R</tspan></text>
        <text class="cls-1" transform="translate(53.42 123.08) rotate(16.3)"><tspan x="0" y="0"> </tspan></text>
        <text class="cls-1" transform="translate(57.55 124.22) rotate(10.22)"><tspan x="0" y="0">&amp;</tspan></text>
        <text class="cls-1" transform="translate(64.4 125.24) rotate(4.17)"><tspan x="0" y="0"> </tspan></text>
        <text class="cls-1" transform="translate(68.71 125.53) rotate(-2.72)"><tspan x="0" y="0">M</tspan></text>
        <text class="cls-1" transform="translate(77.39 124.87) rotate(-11.34)"><tspan x="0" y="0">A</tspan></text>
        <text class="cls-1" transform="translate(84.52 123.24) rotate(-19.27)"><tspan x="0" y="0">R</tspan></text>
        <text class="cls-1" transform="translate(91.22 120.67) rotate(-25.64)"><tspan x="0" y="0">I</tspan></text>
        <text class="cls-1" transform="translate(95.3 118.63) rotate(-32.02)"><tspan x="0" y="0">A</tspan></text>
        <text class="cls-1" transform="translate(101.39 114.62) rotate(-40.13)"><tspan x="0" y="0">N</tspan></text>
        <text class="cls-1" transform="translate(107.23 109.43) rotate(-48.24)"><tspan x="0" y="0">A</tspan></text>
      </g>
      <g>
        <path class="cls-3" d="m26.72,38.38c-2.42,5.53-4.08,11.37-5.12,17.31s-1.48,12.26-1.03,18.4c.24,3.27.73,6.53,1.55,9.71.1.37.67.21.57-.16-1.47-5.71-1.88-11.65-1.63-17.53s1.24-12.2,2.88-18.09c.89-3.19,1.97-6.32,3.3-9.35.15-.35-.36-.65-.51-.3h0Z"/>
        <path class="cls-3" d="m12.09,50.67c1.2,7.45,2.98,14.93,6.09,21.83.85,1.89,1.82,3.73,2.95,5.47.21.32.72.02.51-.3-4.08-6.35-6.29-13.84-7.86-21.16-.43-1.99-.79-3.99-1.12-6-.06-.38-.63-.22-.57.16h0Z"/>
        <path class="cls-3" d="m17.51,69.64c-1.4-1.71-2.7-3.55-3.78-5.48-.79-1.42-1.33-2.85-1.55-4.47-.24-1.76-.23-3.55-.09-5.32.09-1.2.15-2.56.58-3.7.14-.36-.44-.51-.57-.16-.36.97-.43,2.11-.53,3.12-.19,1.83-.24,3.7-.04,5.53.17,1.6.56,3.08,1.28,4.51s1.62,2.8,2.56,4.11c.55.77,1.12,1.53,1.72,2.27.24.3.66-.13.42-.42h0Z"/>
        <path class="cls-3" d="m12.17,50.8c5.24,4.58,6,12.51,4.84,18.97-.07.37.51.53.57.16,1.19-6.65.41-14.83-4.99-19.55-.29-.25-.71.17-.42.42h0Z"/>
        <path class="cls-3" d="m21.1,62.05c-.73-1.97-.89-4.23-.88-6.31.04-4.6,1.36-9.04,3.83-12.92.92-1.44,1.95-2.84,3.13-4.09.26-.28-.16-.7-.42-.42-5.41,5.71-8.15,13.79-6.8,21.59.13.77.29,1.56.56,2.29.13.36.71.2.57-.16h0Z"/>
        <path class="cls-3" d="m26.68,38.53c.14,3.03.24,6.07.13,9.1-.03.77-.05,1.55-.19,2.31-.23,1.28-.68,2.55-1.11,3.77-.73,2.05-1.65,4.06-2.9,5.86-.59.85-1.32,1.54-1.96,2.33-.24.29.18.72.42.42.55-.67,1.18-1.26,1.7-1.96,1.2-1.6,2.1-3.4,2.84-5.25.83-2.08,1.59-4.27,1.74-6.52.13-2.01.1-4.03.05-6.04-.03-1.34-.07-2.68-.13-4.02-.02-.38-.61-.38-.59,0h0Z"/>
      </g>
      <g>
        <line class="cls-4" x1="53.1" y1="97.15" x2="73.94" y2="46.9"/>
        <path class="cls-3" d="m60.92,75.93l-25.93.03v-1.45h4.3v-29.33h-4.3v-1.45h26.86l.21,10.31h-1.56l-1.18-3.71c-.11-.32-.23-.64-.38-.97-1.11-2.79-3.13-4.19-6.07-4.19h-6.07v13.37h10.31v1.61h-10.31v14.34h6.07c.68,0,1.32-.07,1.93-.21,2.04-.54,3.53-2.18,4.46-4.94l1.24-3.71,1.4-.21-.18,8.6"/>
        <path class="cls-3" d="m68.66,61.79h2.66l11.28,23.1,9.61-23.1h11.55v1.45h-4.3v29.33h2.85c.75.07,1.24.56,1.45,1.45h-15.84v-1.45h4.3v-25.51l-11.55,27.5h-.97l-11.44-22.24v20.25h2.85c.75.07,1.24.56,1.45,1.45h-10.85v-1.45h4.3v-24.38"/>
      </g>
      <path class="cls-3" d="m133.51,44.62c-.76.3-.8,1.17-.49,1.66.19.29.51.46.85.5.01.03.02.06.03.1.12.37.22.74.33,1.12.2.73.38,1.47.53,2.22.31,1.49.5,3.01.57,4.53.05,1.07.04,2.14-.02,3.2-.58-2.65-1.73-5.18-3.37-7.34-.31-.41-.65-.81-1-1.19-.01-.01-.02-.03-.03-.04.38-.43.49-1.09.23-1.6-.33-.64-1.2-.94-1.85-.64-.94.37-1,1.45-.61,2.06.37.58,1.2.8,1.82.5.27.33.53.66.78,1.01.52.73.99,1.49,1.42,2.28.83,1.55,1.45,3.22,1.84,4.93.22.97.35,1.95.41,2.94,0,.05.02.09.04.14-.16.96-.36,1.91-.61,2.86-.22.81-.48,1.63-.77,2.41-.15.4-.3.79-.47,1.18-.09.21-.2.43-.3.64-.03-.13-.06-.26-.09-.39-.18-.73-.34-1.48-.62-2.19-.35-.9-.71-1.79-1.08-2.68-1.25-2.97-2.64-5.9-4.28-8.67-.94-1.6-1.98-3.14-3.11-4.61.06-.07.1-.15.1-.27-.02-2.41-.43-4.8-1.19-7.09-.76-2.28-1.87-4.45-3.31-6.38-.4-.54-.83-1.06-1.29-1.56-.14-.15-.28-.3-.42-.45.21-.41.24-.91.03-1.32-.33-.64-1.2-.94-1.85-.64-.94.37-1,1.45-.61,2.06s1.28.82,1.91.46c.06-.03.11-.08.16-.12.07.08.13.16.2.24.37.44.71.9,1.05,1.36.69.95,1.3,1.96,1.85,3,1.08,2.07,1.85,4.28,2.28,6.58.2,1.06.31,2.13.35,3.21-.15-.19-.3-.38-.45-.56-1.36-1.62-2.86-3.12-4.43-4.53-1.52-1.36-3.09-2.68-4.7-3.93-.25-.19-.5-.38-.75-.58.13-.31.14-.67-.02-.96-.27-.52-.96-.76-1.49-.52-.76.3-.8,1.17-.49,1.66s1.03.66,1.54.37c.08-.05.15-.1.21-.17,1.35,1.21,2.77,2.35,4.14,3.54.84.72,1.65,1.47,2.45,2.24-2.33.39-4.79.32-7.1-.21-.3-.07-.59-.15-.89-.22.08-.33.06-.68-.09-.98-.33-.64-1.2-.94-1.85-.64-.94.37-1,1.45-.61,2.06.39.61,1.28.82,1.91.46.17-.1.31-.24.43-.4.25.09.51.16.75.23.6.17,1.22.32,1.84.43,1.23.22,2.49.31,3.74.25.71-.03,1.42-.11,2.12-.22.14-.02.25-.1.31-.2.48.47.95.96,1.4,1.45,1.56,1.71,2.96,3.57,4.22,5.52.75,1.16,1.44,2.36,2.1,3.58-2.65-1.88-5.73-3.2-8.94-3.71-.5-.08-1-.14-1.5-.18-.19-.02-.38-.02-.57-.03-.01-.13-.05-.27-.11-.39-.27-.52-.96-.76-1.49-.52-.76.3-.8,1.17-.49,1.66.31.49,1.03.66,1.54.37.2-.12.36-.3.45-.52.13.02.26.03.39.05.44.06.88.12,1.32.2.89.16,1.77.37,2.63.63,1.7.52,3.33,1.23,4.86,2.14.85.51,1.66,1.07,2.43,1.69.08.06.17.09.26.1.46.92.91,1.84,1.34,2.77.76,1.67,1.46,3.37,2.13,5.08.27.7.44,1.44.61,2.16.17.7.32,1.39.47,2.1.55,2.72.88,5.49.97,8.27.09,2.73-.06,5.47-.45,8.17-.07.46-.15.92-.24,1.38-1.6-2.13-2.99-4.43-4.15-6.83-1.23-2.54-2.18-5.19-2.94-7.91-.22-.77-.41-1.54-.59-2.31-.07-.31-.15-.62-.22-.92.11-.03.21-.07.3-.12.63-.36.88-1.24.55-1.88-.33-.64-1.2-.94-1.85-.64-.94.37-1,1.45-.61,2.06.26.4.73.63,1.2.63.03.25.05.49.09.73.11.7.24,1.39.39,2.08.3,1.39.71,2.76,1.17,4.11.46,1.34.98,2.65,1.58,3.94-.21-.06-.42-.12-.62-.19-.34-.12-.67-.25-.99-.39-.69-.31-1.35-.67-1.98-1.09-1.22-.81-2.3-1.84-3.21-2.99-.29-.37-.57-.75-.84-1.13.32-.35.42-.89.21-1.32-.27-.52-.96-.76-1.49-.52-.76.3-.8,1.17-.49,1.66.29.45.93.63,1.42.43.16.33.34.65.54.96.42.65.91,1.25,1.45,1.81,1.08,1.12,2.37,2.05,3.76,2.75.38.19.77.36,1.18.51.42.16.88.34,1.33.41.06,0,.12,0,.18-.01.5,1.01,1.02,2.02,1.59,2.99.81,1.38,1.71,2.71,2.67,4,.06.07.13.13.21.16-.39,1.92-.89,3.81-1.53,5.67-.92,2.68-2.09,5.28-3.48,7.75-.82,1.46-1.72,2.87-2.68,4.25-1.04-2.07-1.91-4.22-2.57-6.44-.7-2.36-1.18-4.78-1.41-7.24-.07-.69-.12-1.38-.16-2.08-.03-.52-.05-1.05-.09-1.57.2-.01.4-.07.57-.17.63-.36.88-1.24.55-1.88-.33-.64-1.2-.94-1.85-.64-.94.37-1,1.45-.61,2.06.19.3.5.5.84.59-.04.45-.04.91-.04,1.36,0,.63.03,1.26.07,1.89.08,1.25.24,2.51.45,3.75.42,2.48,1.09,4.92,2,7.27.5,1.3,1.09,2.57,1.73,3.81-.62.85-1.25,1.69-1.91,2.51-.48.59-.98,1.17-1.48,1.75-.3.34.22.82.52.48,2.05-2.33,3.92-4.82,5.55-7.46.16-.26.32-.54.47-.8.32.1.66.04.98.01.33-.03.66-.07.98-.11.65-.09,1.3-.2,1.94-.35,1.27-.28,2.51-.67,3.72-1.16,2.43-.99,4.68-2.39,6.63-4.15.79-.71,1.54-1.48,2.2-2.32.36.22.83.26,1.2.05.5-.29.71-1,.45-1.52s-.96-.76-1.49-.52c-.76.3-.8,1.17-.49,1.66.01.02.03.03.04.05-.62.66-1.26,1.31-1.95,1.91-.94.83-1.96,1.57-3.03,2.24-2.16,1.35-4.53,2.36-7.01,2.94-.68.16-1.37.28-2.06.37-.35.05-.71.08-1.06.11-.2.02-.41.02-.62.04,1.14-2,2.15-4.07,2.99-6.21.08-.2.14-.4.22-.59.09,0,.18-.05.25-.12,1.43-1.38,2.73-2.89,3.9-4.5.58-.8,1.13-1.63,1.65-2.48.07.02.15.03.22,0,2.14-.92,4.11-2.18,5.86-3.72,1.72-1.51,3.19-3.32,4.35-5.3.45-.77.87-1.58,1.18-2.42.26.01.52-.04.75-.17.63-.36.88-1.24.55-1.88-.33-.64-1.2-.94-1.85-.64-.94.37-1,1.45-.61,2.06.17.27.45.46.76.56-.33.63-.65,1.25-1.02,1.86-.57.95-1.22,1.85-1.92,2.71-1.41,1.71-3.1,3.22-4.96,4.44-.87.57-1.78,1.07-2.73,1.51.31-.54.61-1.09.89-1.65.89-1.79,1.64-3.65,2.23-5.56.59-1.9,1.01-3.85,1.26-5.82.22-1.79.35-3.63.21-5.44.09-.02.18-.05.27-.1.5-.29.71-1,.45-1.52-.27-.52-.96-.76-1.49-.52-.76.3-.8,1.17-.49,1.66.2.3.55.49.91.51-.02.57-.05,1.14-.07,1.71-.05.97-.13,1.94-.26,2.9-.26,1.95-.68,3.88-1.23,5.77-.55,1.87-1.25,3.69-2.1,5.45-.84,1.75-1.82,3.44-2.94,5.03-1.04,1.47-2.19,2.85-3.44,4.14.66-1.95,1.2-3.94,1.59-5.96.52-2.71.8-5.48.83-8.24.03-2.8-.19-5.61-.64-8.38-.15-.94-.34-1.87-.54-2.81.05-.02.1-.04.14-.09.15-.16.25-.32.34-.52.08-.18.17-.37.25-.56.15-.36.3-.72.44-1.08.29-.75.54-1.51.77-2.28.43-1.49.74-3.02.93-4.57.38-3.12.26-6.3-.37-9.37-.18-.86-.4-1.71-.66-2.55-.13-.42-.28-.83-.44-1.24-.01-.03-.03-.07-.04-.1.05-.02.1-.04.15-.07.5-.29.71-1,.45-1.52-.27-.52-.96-.76-1.49-.52Z"/>
    </g>
  </g>
</svg>