<?xml version="1.0" encoding="UTF-8"?>
<svg id="Capa_2" data-name="Capa 2" xmlns="http://www.w3.org/2000/svg" viewBox="0 0 1754.78 1776.65">
  <defs>
    <style>
      .cls-1 {
        fill: #8eb5dd;
      }

      .cls-1, .cls-2 {
        stroke-width: 0px;
      }

      .cls-2 {
        fill: #fff;
      }
    </style>
  </defs>
  <g id="OBJECTS">
    <g>
      <path class="cls-1" d="m192.82,1426.18c-.86-.43-1.64-1.06-2.28-1.86C-22.79,1156.06-60.34,785.37,94.88,479.93,314.11,48.52,843.44-124.1,1274.85,95.14c431.41,219.23,604.03,748.57,384.8,1179.98-26.97,53.07-59.28,103.4-96.03,149.59-2.38,3-6.76,3.46-9.73,1.11-2.99-2.38-3.49-6.74-1.11-9.73,36.17-45.47,67.97-95,94.52-147.25,215.77-424.6,45.88-945.58-378.72-1161.35C843.97-108.29,323,61.6,107.23,486.2-45.54,786.82-8.58,1151.67,201.39,1415.7c2.38,2.99,1.88,7.34-1.11,9.73-2.19,1.74-5.11,1.94-7.45.75Z"/>
      <path class="cls-1" d="m1378.16,1482.1c.21,2.22,138.12,5.59,206.27-36.41,1.54-.95-28.98-10.9-59.24-13.02-52.39-3.67-103.27,10.57-145.74,42.81-2.46,1.87-2.45,4.54-1.28,6.62Zm124.48-37.93c-32.76,18.78-67.51,33.06-105.46,32.37,31.79-20.62,67.9-29.99,105.46-32.37Z"/>
      <path class="cls-1" d="m1455.67,1436.3c1.18,1.89,93.29-45.48,160.53-132.7,1.52-1.97,26.29-21.6,16.42-20.1-123.12,18.7-138.69,85.83-178.09,145.78-2.28,3.47-1.17,5.93,1.14,7.02Zm138.82-123.54c-32.91,40.63-70.13,78.51-117.51,104.87,30.94-41.63,71.89-75.96,117.51-104.87Z"/>
      <path class="cls-1" d="m1243.99,1560.24c36.09,5.6,72.35,7.08,108.71,3.12,41.07-4.47,85.27-23.26,126.51-12.81,7.06,1.79,9.25-2.55,1.77-6.26-.54-.27-1.1-.47-1.64-.73,0-.01.01-.03.02-.04-.07-.02-.15-.03-.22-.05-35.73-17.48-73.36-29.79-113.28-31.58-63.01-2.83-130.62,46.99-121.87,48.35Zm121.05-34.52c22.95,1.5,45.19,6.35,66.77,13.42-16.24.7-32.48,3.15-49.14,5.86-37.33,6.05-73.79,7.69-110.81,4.44,30.57-12.1,57.43-26.06,93.18-23.72Z"/>
      <path class="cls-1" d="m1199.98,1550.61c56.21-35.44,121.27-48.77,175.42-86.8,6.58-4.62,19.22-13.08,11.71-11.27-59.93,14.46-154.29,28.45-201.13,81.05-7.23,8.12-32.46,46.3,14,17.01Zm138.46-78.8c-43,27.47-100.63,46.92-137.57,64.97,23.43-42.18,86.27-55.28,137.57-64.97Z"/>
      <g>
        <path class="cls-1" d="m379.85,1480.14c-42.47-32.25-93.35-46.48-145.74-42.81-30.26,2.12-60.78,12.07-59.24,13.02,68.15,42,206.05,38.63,206.27,36.42,1.17-2.08,1.18-4.75-1.28-6.62Zm-17.74,1.06c-37.96.69-72.7-13.59-105.46-32.37,37.56,2.38,73.68,11.75,105.46,32.37Z"/>
        <path class="cls-1" d="m304.76,1433.94c-39.4-59.95-54.98-127.09-178.09-145.78-9.87-1.5,14.91,18.13,16.42,20.1,67.24,87.22,159.36,134.59,160.53,132.7,2.31-1.09,3.42-3.55,1.14-7.02Zm-22.44-11.65c-47.38-26.36-84.6-64.25-117.51-104.87,45.62,28.91,86.57,63.25,117.51,104.87Z"/>
        <path class="cls-1" d="m393.44,1516.55c-39.92,1.79-77.56,14.09-113.28,31.58-.07.02-.15.03-.22.05,0,.01.01.03.02.04-.54.27-1.1.46-1.64.73-7.48,3.71-5.29,8.05,1.77,6.26,41.24-10.44,85.44,8.34,126.51,12.81,36.35,3.96,72.62,2.47,108.71-3.12,8.75-1.36-58.86-51.18-121.87-48.35Zm94,37.55c-37.02,3.25-73.48,1.61-110.81-4.44-16.66-2.7-32.91-5.16-49.14-5.86,21.58-7.07,43.82-11.92,66.77-13.42,35.75-2.34,62.6,11.62,93.18,23.72Z"/>
        <path class="cls-1" d="m573.31,1538.25c-46.84-52.6-141.2-66.6-201.13-81.06-7.51-1.81,5.13,6.65,11.71,11.27,54.16,38.03,119.21,51.36,175.42,86.8,46.46,29.29,21.23-8.89,14-17.01Zm-14.88,3.18c-36.94-18.05-94.57-37.5-137.58-64.97,51.31,9.68,114.14,22.79,137.58,64.97Z"/>
      </g>
      <g>
        <path class="cls-1" d="m936.38,1500.72c-8.74-58.55-56.37-86.77-88.23-101.01-34.56-15.46-65.5-24.7-103.52-22.76-23.57,1.21-50.95,2.82-68.99,28.52-9.57,13.63,10.44,36.84,20.31,47.89-34.14,9.43-54.98,38.69-29.06,46.54,8.52,2.58,45.53-11.08,36.99-13.67-34.77,2.78-11.69-17.91,25.94-19.9,80.87-7.77,111.34,6.01,107.44,4.37-113.04-47.61-163.86-113.5-24.68-74.13,19.71,5.57,40.65,13.69,58.27,24.35,53.98,32.64,31.36,68.06,30.61,78.49-.63,8.81,36.23,10.14,34.91,1.32Z"/>
        <path class="cls-1" d="m1163.73,1553.86c-39.84-24.39-86.64-28.26-132.23-24.98-.15-.36-.17-.69-.39-1.05-4.95-7.87-12.31,1.84-25.64-7.41-7.04-10.18-14.42-6.03-19.12-7.94,25.73-22.11,58.58-55.25,89.89-69.07,42.56-18.78,108.66-15.9,120.66,37.03,1.96,8.67,7.99,9.26,6.02.53-9.26-40.85-46.3-64.2-87.35-61.84-54.23,3.11-94.75,49.56-135.92,91.5-.9.92-13-8.66-13.09-8.73-14.96-10.57-21.51.03-22.21.21-4.56-47.98,37.36-154.93,98.64-118.31,7.63,4.56,7.69-.12.03-4.7-73.04-43.64-119.95,60.95-112.07,120.71-31.54-5.06-63.37-3.13-82.71,12.76-64.31-26.17-156.06-42.1-219.91-6.24-18.33,10.3-39.66,30.87-33.3,54.23,5.76,21.17,27.3,26.83,46.79,28.44-7.01,22.86,10.54,43.64,37.4,39.26,8.79-1.43,3.01-4.84-5.8-3.4-27.53-2.69-2.54-33.62-1.38-45.37,2.7-4.23-13.79-3.58-19.23-3.74-21.76-.62,125.42-40.79,101.96-38.34-149.4,15.6-132.82-13.31-110.95-23.25,21.89-9.94,49.77-12.42,73.43-12.95,41.84-.94,82.43,7.32,121.22,22.44-4.32,6.7-7.23,14.82-8.3,24.67-.83.05-1.68.19-2.58.6-59.61,27.17-131.32,96.36-102.79,169.74,11.43,29.41,32.29,30.95,58.85,28.25,33.6-3.41,33.56,8.41,57.32,20.96,15.87,8.38,28.91,10,46.02,6,8.65-2.03,6-15.63-2.72-13.59-37.65,8.81-14.19-163.42-23.54-135.57-44.96,133.96-118.51,116.12-126.22,71.82-9.84-56.56,49.97-113.59,96.24-138.52,1.86,3.22,4.96,16.31,13.62,20.8,34.66,17.94,67.85,5.21,99.48-.09,20.68-3.47,59.47-10.48,74.81-29.49,2.32-1.68,4.23-3.74,5.6-6.36.33.08,7.22-8.42,7.61-8.46,65.16-5.97,141.42,14.84,172.27,82.13,12.8,27.91-2.74,46.65-27.76,61.3-6.14,3.6-12.32,4.68-18.26,9.02-26.66,19.49-58.48,54.62-104.17,29.38-7.75-4.28,11.82,10.73,19.63,15.04,33.41,18.46,54.23,10.41,77.48-16.98,15.19-17.89,27.42-18.33,47.06-28.44,3.88-2,8.29-3.35,11.74-6.17,11.04-9.04,15.22-21.97,15.27-35.86.13-37.67-31.26-71.5-61.42-89.97Zm-255.03,12.24c-35.38.9-37.78-53.24-2.45-55.29,7.88-.46,15.46-.27,21.99.26,26.91,2.17,51.38,12.56,73.3,27.53-28.7,17.4-60.42,26.69-92.83,27.51Z"/>
        <path class="cls-1" d="m965.47,1592.29c-5.7-6.87-9.48-5.84-3.79,1.03,19.28,23.25,21.22,57.58,28.83,86.49,3.41,12.94,8.03,26.52,7.14,40.1,4.01,23.65-10.98,37.73-44.97,42.24-8.94-3.5-22.04.54-29.75-5.12-7.43-4.95-10.48-2.14-3.06,2.81,32.17,21.42,76.26,28.84,89.83-17.31,13.21-44.93-15.61-115.69-44.25-150.23Z"/>
        <path class="cls-1" d="m904.78,1523.8s-14.1,11.89-1.71,9.29c12.39-2.6,8.2-12.31,1.71-9.29Z"/>
        <path class="cls-1" d="m886.6,1514.83s-14.1,11.89-1.71,9.29c12.39-2.6,8.21-12.31,1.71-9.29Z"/>
        <path class="cls-1" d="m955.82,1521.89s-14.1,11.89-1.71,9.29c12.39-2.6,8.21-12.31,1.71-9.29Z"/>
        <path class="cls-1" d="m898.63,1541.49s-15.76,5.84-4.12,8.77,21.34-10.67,4.12-8.77Z"/>
        <path class="cls-1" d="m961.68,1547.06s-15.76,5.84-4.12,8.77c11.64,2.93,21.33-10.67,4.12-8.77Z"/>
        <path class="cls-1" d="m935.92,1531.7s-9.22,3.42-2.41,5.13c6.81,1.71,12.48-6.24,2.41-5.13Z"/>
        <path class="cls-1" d="m926.11,1542.41s-27.95,5.66-6.89,8.57c21.06,2.91,40.36-8.61,6.89-8.57Z"/>
        <path class="cls-1" d="m915.84,1515.53c-3.05-1.26-23.07,10.55,3.46,10.01,26.53-.53,31.22-17.28-6.51-11.27"/>
        <path class="cls-1" d="m978.48,1541.3c-3.05-1.26-23.07,10.55,3.46,10.01,26.53-.53,31.22-17.28-6.51-11.28"/>
        <path class="cls-1" d="m902.22,1559.53c-3.05-1.26-23.07,10.54,3.47,10.01,26.53-.53,31.22-17.28-6.51-11.27"/>
      </g>
    </g>
    <g>
      <path class="cls-2" d="m493.26,1057.59l234.3,93.5c1.5.6,3.1.9,4.6.9s3.2-.3,4.6-.9l245.6-98,237,86c4.2,1.5,8.5,2.2,12.8,2.2,7.6,0,15.1-2.3,21.5-6.8,10-7,16-18.5,16-30.7v-522c0-15.7-9.9-29.9-24.7-35.2l-149.9-54.4c-6.5-2.3-13.7,1-16,7.5-2.4,6.5,1,13.6,7.5,16l149.9,54.4c4.9,1.8,8.2,6.5,8.2,11.7v522c0,4.1-1.9,7.8-5.3,10.2-3.5,2.4-7.6,2.9-11.4,1.5l-233.3-84.5v-203.9c0-6.9-5.6-12.5-12.5-12.5s-12.5,5.6-12.5,12.5v204.2l-225,89.8v-269c0-6.9-5.6-12.5-12.5-12.5s-12.5,5.6-12.5,12.5v269l-217.1-86.7c-4.8-1.9-7.9-6.5-7.9-11.6V501.49c0-4.2,2-8,5.5-10.3,3.5-2.4,7.7-2.8,11.7-1.3l81,32.4c6.4,2.6,13.7-.6,16.2-7,2.6-6.4-.5-13.7-6.9-16.2l-81-32.4c-11.6-4.7-24.7-3.2-35,3.8s-16.5,18.6-16.5,31v521.3c0,15.4,9.2,29.1,23.6,34.8Z"/>
      <path class="cls-2" d="m821.06,913.79c5.7,8.4,15.3,13.3,25.4,13.3s19.8-5,25.5-13.4l92.4-132.7,51.8-78.9c36.9-46.7,52.6-105.2,44.3-164.7-13.3-95.7-93-173-189.4-183.9-130.8-14.5-242,87.3-242,214.9,0,49.9,16.2,94.2,52.4,143.4l139.6,202Zm24.8-536.7c7.4,0,14.9.4,22.4,1.3,85.3,9.6,155.7,78,167.5,162.5,7.3,52.7-6.6,104.4-39.8,146.5l-52.3,79.6-92.3,132.5c-3.1,4.5-6.7,4.5-9.8,0l-139.8-202.2c-33-44.9-47.7-84.7-47.7-129-.1-105.4,86-191.2,191.8-191.2Z"/>
      <path class="cls-2" d="m844.66,643.39c41.4,0,75-33.6,75-75s-33.7-75-75-75-75,33.6-75,75,33.7,75,75,75Zm0-125c27.6,0,50,22.4,50,50s-22.4,50-50,50-50-22.4-50-50,22.5-50,50-50Z"/>
    </g>
  </g>
</svg>