<?xml version="1.0" encoding="UTF-8"?>
<svg id="Capa_2" data-name="Capa 2" xmlns="http://www.w3.org/2000/svg" viewBox="0 0 250.63 20.3">
  <defs>
    <style>
      .cls-1 {
        fill: #624f41;
        stroke-width: 0px;
      }
    </style>
  </defs>
  <g id="OBJECTS">
    <g>
      <g>
        <g>
          <path class="cls-1" d="m154.89,10.99c0,1.42,7.66,3.04,17.04,2.58,52.17-2.56,78.38-2.58,78.71-2.58-.32,0-21.11-.02-78.71-2.58-9.39-.42-17.04,1.15-17.04,2.58Zm1.03,0c.02-.11.67-.66,3.4-1.2,2.61-.51,6-.8,9.54-.8.99,0,2,.02,3,.07,20.73.92,36.73,1.51,48.72,1.89-.47.01-.94.03-1.42.04h-63.24s0,0,0,0Z"/>
          <path class="cls-1" d="m150.66,13.38c-1.31,0-2.38-1.07-2.38-2.38s1.07-2.38,2.38-2.38,2.38,1.07,2.38,2.38-1.07,2.38-2.38,2.38Zm0-3.81c-.79,0-1.43.64-1.43,1.43s.64,1.43,1.43,1.43,1.43-.64,1.43-1.43-.64-1.43-1.43-1.43Z"/>
          <rect class="cls-1" x="153.05" y="10.52" width="2.87" height=".95"/>
          <rect class="cls-1" x="143.53" y="10.52" width="4.64" height=".95"/>
        </g>
        <g>
          <path class="cls-1" d="m78.71,8.41C21.11,10.97.32,10.99,0,10.99c.32,0,26.53.02,78.71,2.58,9.38.46,17.04-1.15,17.04-2.58s-7.65-2.99-17.04-2.58Zm16.01,2.58H31.48c-.48-.01-.95-.03-1.42-.04,12-.38,28-.97,48.72-1.89,1-.04,2-.07,3-.07,3.54,0,6.93.28,9.54.8,2.73.54,3.39,1.09,3.4,1.2,0,0,0,0,0,0Z"/>
          <path class="cls-1" d="m97.58,10.99c0-1.31,1.07-2.38,2.38-2.38s2.38,1.07,2.38,2.38-1.07,2.38-2.38,2.38-2.38-1.07-2.38-2.38Zm.95,0c0,.79.64,1.43,1.43,1.43s1.43-.64,1.43-1.43-.64-1.43-1.43-1.43-1.43.64-1.43,1.43Z"/>
          <rect class="cls-1" x="94.71" y="10.52" width="2.87" height=".95"/>
          <rect class="cls-1" x="102.47" y="10.52" width="4.64" height=".95"/>
        </g>
        <path class="cls-1" d="m144.94,8.39c-.63-4.66-5.97-5.83-9.81-4.69-5.65,1.68-9.97,6.75-14.88,9.81-3,1.87-7.11,3.29-10.39,1.21-1.54-.97-2.74-2.81-2.58-4.69.2-2.45,2.7-4.2,4.99-3.04.75.38,1.25-.82.45-1.06-3.36-1.02-6.54,2.44-5.5,5.73,1.38,4.38,6.56,4.96,10.29,3.55,5.61-2.13,9.72-7.1,14.97-9.89,3.2-1.7,7.82-2.54,10.24.92,2.18,3.12-.21,6.73-3.9,5.81-.42-.1-.8.45-.44.76,2.94,2.61,7.02-1.1,6.57-4.41Z"/>
      </g>
      <path class="cls-1" d="m138.93,7.3c-11.42.43-21.83,19.47-32.81,7.53-.07-.08-.21.03-.15.11,1.65,2.18,3.05,4.14,5.83,4.94,2.75.8,5.69.35,8.3-.71,7-2.88,11.25-9.7,18.9-11.38.28-.06.22-.51-.07-.5Z"/>
      <path class="cls-1" d="m141.48,1.34c-8.31-5.81-16.62,9.23-24.37,9.3-.12,0-.12.18,0,.19,4.02.12,6.93-2.24,10.02-4.53,1.88-1.39,3.82-2.68,5.98-3.58,2.86-1.19,5.22-.98,8.2-.79.34.02.4-.43.16-.59Z"/>
    </g>
  </g>
</svg>