<?xml version="1.0" standalone="no"?>
<!DOCTYPE svg PUBLIC "-//W3C//DTD SVG 20010904//EN"
 "http://www.w3.org/TR/2001/REC-SVG-20010904/DTD/svg10.dtd">
<svg version="1.0" xmlns="http://www.w3.org/2000/svg"
 width="1280.000000pt" height="886.000000pt" viewBox="0 0 1280.000000 886.000000"
 preserveAspectRatio="xMidYMid meet">
<g transform="translate(0.000000,886.000000) scale(0.100000,-0.100000)"
fill="#000000" stroke="none">
<path d="M0 6815 l0 -2045 2045 0 2045 0 4 22 c3 13 15 93 27 178 118 840 678
1565 1456 1887 334 137 636 191 1012 180 365 -11 658 -85 986 -248 726 -363
1220 -1062 1320 -1869 8 -69 15 -130 15 -137 0 -11 371 -13 1945 -13 l1945 0
0 2045 0 2045 -6400 0 -6400 0 0 -2045z"/>
<path d="M6325 6358 c-352 -35 -692 -184 -968 -424 -401 -350 -625 -903 -579
-1430 22 -246 72 -425 178 -639 170 -344 447 -617 797 -785 144 -70 266 -111
419 -142 98 -20 142 -23 338 -23 196 1 239 4 330 24 245 53 481 154 670 289
122 86 316 280 403 402 81 115 196 341 237 468 166 516 80 1097 -227 1532
-100 140 -312 349 -447 439 -347 231 -744 330 -1151 289z"/>
<path d="M200 4007 c0 -51 -5 -88 -12 -95 -8 -8 -45 -12 -100 -12 l-88 0 0
-1950 0 -1950 6400 0 6400 0 0 2045 0 2045 -1972 -2 -1972 -3 -56 -165 c-87
-257 -157 -404 -278 -590 -564 -865 -1611 -1277 -2606 -1026 -436 111 -882
374 -1168 689 -267 294 -418 553 -544 932 l-53 160 -1975 3 -1976 2 0 -83z"/>
</g>
</svg>
